<svg width="32" height="32" viewBox="0 0 32 32" fill="none" xmlns="http://www.w3.org/2000/svg">
<g clip-path="url(#clip0_114_104)">
<path d="M18.6667 14.6667H28V8H18.6667V14.6667ZM23.3333 13L20 10.6667V9.33333L23.3333 11.6667L26.6667 9.33333V10.6667L23.3333 13ZM2.66667 28C1.93333 28 1.30578 27.7391 0.784 27.2173C0.262222 26.6956 0.000888889 26.0676 0 25.3333V6.66667C0 5.93333 0.261333 5.30578 0.784 4.784C1.30667 4.26222 1.93422 4.00089 2.66667 4H29.3333C30.0667 4 30.6947 4.26133 31.2173 4.784C31.74 5.30667 32.0009 5.93422 32 6.66667V25.3333C32 26.0667 31.7391 26.6947 31.2173 27.2173C30.6956 27.74 30.0676 28.0009 29.3333 28H2.66667ZM12 18.6667C13.1111 18.6667 14.0556 18.2778 14.8333 17.5C15.6111 16.7222 16 15.7778 16 14.6667C16 13.5556 15.6111 12.6111 14.8333 11.8333C14.0556 11.0556 13.1111 10.6667 12 10.6667C10.8889 10.6667 9.94444 11.0556 9.16667 11.8333C8.38889 12.6111 8 13.5556 8 14.6667C8 15.7778 8.38889 16.7222 9.16667 17.5C9.94444 18.2778 10.8889 18.6667 12 18.6667ZM2.8 25.3333H21.2C20.2667 23.6667 18.9778 22.3613 17.3333 21.4173C15.6889 20.4733 13.9111 20.0009 12 20C10.0889 19.9991 8.31111 20.4716 6.66667 21.4173C5.02222 22.3631 3.73333 23.6684 2.8 25.3333Z" fill="#C0C0C0"/>
<path d="M11.8333 17.6667C11.4414 17.6667 11.0731 17.5923 10.7283 17.4434C10.3836 17.2946 10.0838 17.0927 9.82875 16.8379C9.57375 16.5831 9.37192 16.2833 9.22327 15.9383C9.07461 15.5934 9.00019 15.2251 9 14.8333C8.99981 14.4416 9.07423 14.0732 9.22327 13.7283C9.3723 13.3834 9.57413 13.0836 9.82875 12.8288C10.0834 12.5739 10.3832 12.3721 10.7283 12.2233C11.0734 12.0744 11.4418 12 11.8333 12C12.2249 12 12.5932 12.0744 12.9383 12.2233C13.2834 12.3721 13.5833 12.5739 13.8379 12.8288C14.0926 13.0836 14.2945 13.3834 14.4437 13.7283C14.5929 14.0732 14.6672 14.4416 14.6667 14.8333V15.2442C14.6667 15.5228 14.5711 15.7601 14.3799 15.9562C14.1888 16.1523 13.9538 16.2502 13.675 16.25C13.5097 16.25 13.3539 16.2146 13.2075 16.1438C13.0611 16.0729 12.9383 15.9714 12.8392 15.8392C12.7022 15.9761 12.5475 16.0789 12.3751 16.1474C12.2026 16.216 12.022 16.2502 11.8333 16.25C11.4414 16.25 11.1073 16.1118 10.8312 15.8355C10.555 15.5591 10.4169 15.2251 10.4167 14.8333C10.4165 14.4416 10.5547 14.1075 10.8312 13.8312C11.1077 13.5548 11.4418 13.4167 11.8333 13.4167C12.2249 13.4167 12.5591 13.5548 12.8358 13.8312C13.1125 14.1075 13.2506 14.4416 13.25 14.8333V15.2442C13.25 15.367 13.2902 15.4708 13.3704 15.5558C13.4507 15.6408 13.5522 15.6833 13.675 15.6833C13.7978 15.6833 13.8993 15.6408 13.9796 15.5558C14.0599 15.4708 14.1 15.367 14.1 15.2442V14.8333C14.1 14.2006 13.8804 13.6646 13.4413 13.2254C13.0021 12.7863 12.4661 12.5667 11.8333 12.5667C11.2006 12.5667 10.6646 12.7863 10.2254 13.2254C9.78625 13.6646 9.56667 14.2006 9.56667 14.8333C9.56667 15.4661 9.78625 16.0021 10.2254 16.4413C10.6646 16.8804 11.2006 17.1 11.8333 17.1H12.9667C13.047 17.1 13.1143 17.1272 13.1687 17.1816C13.2231 17.236 13.2502 17.3033 13.25 17.3833C13.2498 17.4634 13.2226 17.5308 13.1684 17.5854C13.1142 17.64 13.047 17.6671 12.9667 17.6667H11.8333ZM11.8333 15.6833C12.0695 15.6833 12.2701 15.6007 12.4354 15.4354C12.6007 15.2701 12.6833 15.0695 12.6833 14.8333C12.6833 14.5972 12.6007 14.3965 12.4354 14.2313C12.2701 14.066 12.0695 13.9833 11.8333 13.9833C11.5972 13.9833 11.3965 14.066 11.2313 14.2313C11.066 14.3965 10.9833 14.5972 10.9833 14.8333C10.9833 15.0695 11.066 15.2701 11.2313 15.4354C11.3965 15.6007 11.5972 15.6833 11.8333 15.6833Z" fill="#C0C0C0"/>
</g>
<defs>
<clipPath id="clip0_114_104">
<rect width="32" height="32" fill="white"/>
</clipPath>
</defs>
</svg>
