<svg width="32" height="32" viewBox="0 0 32 32" fill="none" xmlns="http://www.w3.org/2000/svg">
<path d="M9.36688 8.34287C9.36688 9.04001 9.64382 9.70859 10.1368 10.2015C10.6297 10.6945 11.2983 10.9714 11.9955 10.9714C12.6926 10.9714 13.3612 10.6945 13.8541 10.2015C14.3471 9.70859 14.624 9.04001 14.624 8.34287C14.624 7.64573 14.3471 6.97714 13.8541 6.48419C13.3612 5.99123 12.6926 5.71429 11.9955 5.71429C11.2983 5.71429 10.6297 5.99123 10.1368 6.48419C9.64382 6.97714 9.36688 7.64573 9.36688 8.34287Z" stroke="#C0C0C0" stroke-width="2.28571" stroke-linecap="round" stroke-linejoin="round"/>
<path d="M8 13.5772C8.39459 12.8054 8.98196 12.1487 9.70514 11.6709C10.4046 11.2137 11.1954 10.976 11.9977 10.976C12.8 10.976 13.5909 11.2137 14.2903 11.6709C14.992 12.1257 15.5771 12.7817 15.9954 13.5772" stroke="#C0C0C0" stroke-width="2.28571" stroke-linecap="round" stroke-linejoin="round"/>
<path d="M28.5714 28.5715C28.5714 29.1777 28.3306 29.759 27.902 30.1877C27.4733 30.6164 26.8919 30.8572 26.2857 30.8572H5.7143C5.10809 30.8572 4.52671 30.6164 4.09806 30.1877C3.6694 29.759 3.42859 29.1777 3.42859 28.5715V3.4286C3.42859 2.82239 3.6694 2.24101 4.09806 1.81235C4.52671 1.3837 5.10809 1.14288 5.7143 1.14288H20.5714L28.5714 9.14288V28.5715Z" stroke="#C0C0C0" stroke-width="2.28571" stroke-linecap="round" stroke-linejoin="round"/>
<path d="M8 19.4286H24M8 25.1429H17.1429" stroke="#C0C0C0" stroke-width="2.28571" stroke-linecap="round"/>
</svg>
