<svg width="32" height="32" viewBox="0 0 32 32" fill="none" xmlns="http://www.w3.org/2000/svg">
<path d="M13.3333 18.664C12.626 18.664 11.9478 18.3831 11.4477 17.883C10.9476 17.3829 10.6666 16.7046 10.6666 15.9974C10.6666 15.2901 10.9476 14.6118 11.4477 14.1117C11.9478 13.6116 12.626 13.3307 13.3333 13.3307C14.0405 13.3307 14.7188 13.6116 15.2189 14.1117C15.719 14.6118 16 15.2901 16 15.9974C16 16.7046 15.719 17.3829 15.2189 17.883C14.7188 18.3831 14.0405 18.664 13.3333 18.664ZM13.3333 5.33069C11.9325 5.33069 10.5455 5.60659 9.25134 6.14264C7.9572 6.67869 6.78131 7.46439 5.79082 8.45488C4.80033 9.44537 4.01463 10.6213 3.47858 11.9154C2.94253 13.2095 2.66663 14.5966 2.66663 15.9974C2.66663 17.3981 2.94253 18.7852 3.47858 20.0793C4.01463 21.3735 4.80033 22.5493 5.79082 23.5398C6.78131 24.5303 7.9572 25.316 9.25134 25.8521C10.5455 26.3881 11.9325 26.664 13.3333 26.664C16.1623 26.664 18.8754 25.5402 20.8758 23.5398C22.8762 21.5394 24 18.8263 24 15.9974C24 13.1684 22.8762 10.4553 20.8758 8.45488C18.8754 6.45449 16.1623 5.33069 13.3333 5.33069ZM26.6666 15.9974H29.3333V9.33069H26.6666M26.6666 21.3307H29.3333V18.664H26.6666V21.3307Z" fill="#F4F4F3"/>
</svg>
