<svg width="32" height="32" viewBox="0 0 32 32" fill="none" xmlns="http://www.w3.org/2000/svg">
<path d="M8.00004 25.3334H12V18.6667C12 18.2889 12.128 17.9725 12.384 17.7174C12.64 17.4622 12.9565 17.3342 13.3334 17.3334H18.6667C19.0445 17.3334 19.3614 17.4614 19.6174 17.7174C19.8734 17.9734 20.0009 18.2898 20 18.6667V25.3334H24V13.3334L16 7.33335L8.00004 13.3334V25.3334ZM5.33337 25.3334V13.3334C5.33337 12.9111 5.42804 12.5111 5.61737 12.1334C5.80671 11.7556 6.0676 11.4445 6.40004 11.2L14.4 5.20002C14.8667 4.84446 15.4 4.66669 16 4.66669C16.6 4.66669 17.1334 4.84446 17.6 5.20002L25.6 11.2C25.9334 11.4445 26.1947 11.7556 26.384 12.1334C26.5734 12.5111 26.6676 12.9111 26.6667 13.3334V25.3334C26.6667 26.0667 26.4054 26.6947 25.8827 27.2174C25.36 27.74 24.7325 28.0009 24 28H18.6667C18.2889 28 17.9725 27.872 17.7174 27.616C17.4623 27.36 17.3343 27.0436 17.3334 26.6667V20H14.6667V26.6667C14.6667 27.0445 14.5387 27.3614 14.2827 27.6174C14.0267 27.8734 13.7103 28.0009 13.3334 28H8.00004C7.26671 28 6.63915 27.7391 6.11737 27.2174C5.5956 26.6956 5.33426 26.0676 5.33337 25.3334Z" fill="#C0C0C0"/>
</svg>
