<svg width="32" height="32" viewBox="0 0 32 32" fill="none" xmlns="http://www.w3.org/2000/svg">
<g clip-path="url(#clip0_6_34)">
<path d="M27.2654 27.2659H22.524V19.8405C22.524 18.0699 22.4924 15.7905 20.058 15.7905C17.5885 15.7905 17.2106 17.7198 17.2106 19.7116V27.2654H12.4694V11.9959H17.021V14.0826H17.0848C17.5403 13.3038 18.1985 12.6631 18.9894 12.2287C19.7802 11.7944 20.6741 11.5826 21.5758 11.616C26.3814 11.616 27.2674 14.777 27.2674 18.8893L27.2654 27.2659ZM7.11938 9.90877C5.59975 9.90902 4.36763 8.67727 4.36738 7.15764C4.36713 5.63802 5.59875 4.40589 7.11838 4.40564C8.638 4.40527 9.87013 5.63702 9.87038 7.15664C9.87051 7.8864 9.58075 8.58632 9.06484 9.10244C8.54893 9.61856 7.84913 9.9086 7.11938 9.90877ZM9.49013 27.266H4.74375V11.9959H9.49L9.49013 27.266ZM29.6291 0.00226795H2.36125C1.0725 -0.012232 0.0156279 1.02014 -0.00012207 2.30889V29.6905C0.0151279 30.9799 1.07188 32.0133 2.36113 31.9998H29.6291C30.9211 32.0158 31.982 30.9824 31.9999 29.6905V2.30677C31.9815 1.01552 30.9205 -0.0167321 29.6291 0.000142951" fill="#C0C0C0"/>
</g>
<defs>
<clipPath id="clip0_6_34">
<rect width="32" height="32" fill="white"/>
</clipPath>
</defs>
</svg>
