<svg width="40" height="40" viewBox="0 0 40 40" fill="none" xmlns="http://www.w3.org/2000/svg">
<path d="M5 30H17.5V32.5H5V30ZM5 25H11.25H17.5V27.5H11.25H5V25ZM32.5 17.5H7.5C6.83696 17.5 6.20107 17.2366 5.73223 16.7678C5.26339 16.2989 5 15.663 5 15V7.5C5 6.83696 5.26339 6.20107 5.73223 5.73223C6.20107 5.26339 6.83696 5 7.5 5H32.5C33.163 5 33.7989 5.26339 34.2678 5.73223C34.7366 6.20107 35 6.83696 35 7.5V15C35 15.663 34.7366 16.2989 34.2678 16.7678C33.7989 17.2366 33.163 17.5 32.5 17.5ZM7.5 7.5V15H32.5V7.5H7.5Z" fill="#C0C0C0"/>
<path d="M17.5 22.5V20H11.25H5V22.5H11.25H17.5Z" fill="#C0C0C0"/>
<path d="M32.375 18.75H24.125C23.3687 18.75 22.75 19.3687 22.75 20.125V28.375C22.75 29.1313 23.3687 29.75 24.125 29.75H32.375C33.1313 29.75 33.75 29.1313 33.75 28.375V20.125C33.75 19.3687 33.1313 18.75 32.375 18.75ZM31 22.1875H28.9375V25.9688C28.9375 26.4246 28.7564 26.8618 28.4341 27.1841C28.1118 27.5064 27.6746 27.6875 27.2188 27.6875C26.7629 27.6875 26.3257 27.5064 26.0034 27.1841C25.6811 26.8618 25.5 26.4246 25.5 25.9688C25.5 25.5129 25.6811 25.0757 26.0034 24.7534C26.3257 24.4311 26.7629 24.25 27.2188 24.25C27.6106 24.25 27.9613 24.3806 28.25 24.6006V20.8125H31V22.1875ZM21.375 21.5H20V31.125C20 31.8813 20.6187 32.5 21.375 32.5H31V31.125H21.375V21.5Z" fill="#C0C0C0"/>
</svg>
