<svg width="32" height="32" viewBox="0 0 32 32" fill="none" xmlns="http://www.w3.org/2000/svg">
<path d="M27.3 31.0667L24.2333 28H5.33333C4.59999 28 3.97244 27.7391 3.45066 27.2173C2.92888 26.6956 2.66755 26.0676 2.66666 25.3333V9.33333C2.66666 8.6 2.92799 7.97244 3.45066 7.45066C3.97333 6.92888 4.60088 6.66755 5.33333 6.66666H6.69999V10.4667L0.899994 4.66666L2.79999 2.76666L29.2 29.1667L27.3 31.0667ZM29.3333 25.5L21.9667 18.1C22.0778 17.1667 21.9831 16.2613 21.6827 15.384C21.3822 14.5067 20.8995 13.7342 20.2347 13.0667C19.5902 12.4222 18.8289 11.9502 17.9507 11.6507C17.0724 11.3511 16.1671 11.2564 15.2347 11.3667L9.99999 6.16666L12 4H20L22.4667 6.66666H26.6667C27.4 6.66666 28.028 6.928 28.5507 7.45066C29.0733 7.97333 29.3342 8.60089 29.3333 9.33333V25.5ZM16 23.3333C16.5111 23.3333 17.0058 23.2778 17.484 23.1667C17.9622 23.0556 18.4231 22.8778 18.8667 22.6333L10.7 14.4667C10.4555 14.9111 10.2778 15.3724 10.1667 15.8507C10.0555 16.3289 9.99999 16.8231 9.99999 17.3333C9.99999 19 10.5835 20.4169 11.7507 21.584C12.9178 22.7511 14.3342 23.3342 16 23.3333ZM16 20.6667C15.0667 20.6667 14.2778 20.3444 13.6333 19.7C12.9889 19.0556 12.6667 18.2667 12.6667 17.3333C12.6667 16.8889 12.7502 16.4613 12.9173 16.0507C13.0844 15.64 13.3231 15.2787 13.6333 14.9667L18.3667 19.7C18.0555 20.0111 17.6947 20.2502 17.284 20.4173C16.8733 20.5844 16.4453 20.6676 16 20.6667Z" fill="#B12424"/>
</svg>
