<svg width="64" height="32" viewBox="0 0 64 32" fill="none" xmlns="http://www.w3.org/2000/svg">
<g clip-path="url(#clip0_13_2)">
<path d="M44.4 30.3L41.3333 27.2333H22.4333C21.7 27.2333 21.0724 26.9724 20.5507 26.4507C20.0289 25.9289 19.7676 25.3009 19.7667 24.5667V8.56667C19.7667 7.83333 20.028 7.20578 20.5507 6.684C21.0733 6.16222 21.7009 5.90089 22.4333 5.9H23.8V9.7L18 3.9L19.9 2L46.3 28.4L44.4 30.3ZM46.4333 24.7333L39.0667 17.3333C39.1778 16.4 39.0831 15.4947 38.7827 14.6173C38.4822 13.74 37.9996 12.9676 37.3347 12.3C36.6902 11.6556 35.9289 11.1836 35.0507 10.884C34.1724 10.5844 33.2671 10.4898 32.3347 10.6L27.1 5.4L29.1 3.23333H37.1L39.5667 5.9H43.7667C44.5 5.9 45.128 6.16133 45.6507 6.684C46.1733 7.20667 46.4342 7.83422 46.4333 8.56667V24.7333ZM33.1 22.5667C33.6111 22.5667 34.1058 22.5111 34.584 22.4C35.0622 22.2889 35.5231 22.1111 35.9667 21.8667L27.8 13.7C27.5556 14.1444 27.3778 14.6058 27.2667 15.084C27.1556 15.5622 27.1 16.0564 27.1 16.5667C27.1 18.2333 27.6836 19.6502 28.8507 20.8173C30.0178 21.9844 31.4342 22.5676 33.1 22.5667ZM33.1 19.9C32.1667 19.9 31.3778 19.5778 30.7333 18.9333C30.0889 18.2889 29.7667 17.5 29.7667 16.5667C29.7667 16.1222 29.8502 15.6947 30.0173 15.284C30.1844 14.8733 30.4231 14.512 30.7333 14.2L35.4667 18.9333C35.1556 19.2444 34.7947 19.4836 34.384 19.6507C33.9733 19.8178 33.5453 19.9009 33.1 19.9Z" fill="#B12424"/>
</g>
<defs>
<clipPath id="clip0_13_2">
<rect width="64" height="32" fill="white"/>
</clipPath>
</defs>
</svg>
